<svg width="160" height="68" viewBox="0 0 200 68" fill="none" xmlns="http://www.w3.org/2000/svg">
<g clip-path="url(#clip0_18_648)">
<path fill-rule="evenodd" clip-rule="evenodd" d="M194.64 15.8308H195.893C195.901 15.8448 195.907 15.8595 195.912 15.8747C196.116 16.3198 196.32 16.7587 196.505 17.207C196.708 17.7054 196.89 18.2133 197.11 18.7086C197.119 18.7227 197.126 18.7388 197.129 18.7556C197.288 18.3919 197.539 17.8151 197.702 17.439C197.865 17.0628 198.016 16.7587 198.15 16.4233C198.21 16.2916 198.219 16.2666 198.219 16.2195C198.219 16.1035 198.103 16.1035 198 16.1035L197.545 16.1255L198 15.8308H199.671L199.552 15.9437C199.489 15.9889 199.439 16.0496 199.406 16.1199C199.374 16.1903 199.36 16.2678 199.367 16.3449C199.362 16.419 199.362 16.4934 199.367 16.5675C199.398 16.881 199.426 17.2227 199.451 17.5487C199.48 17.9807 199.532 18.4108 199.608 18.8371C199.617 18.9699 199.657 19.0988 199.725 19.2136C199.792 19.3284 199.885 19.4259 199.997 19.4985C199.753 19.5485 199.506 19.5737 199.257 19.5738C199.083 19.585 198.91 19.5387 198.765 19.4421C198.552 19.2728 198.524 19.0095 198.486 18.5362C198.455 18.2227 198.423 17.8935 198.395 17.5706C198.367 17.2477 198.367 16.9437 198.335 16.649V16.5894L198.304 16.6553C198.122 17.0503 197.956 17.4546 197.781 17.8496C197.585 18.2584 197.41 18.6769 197.257 19.1035L197.313 19.2603C197.163 19.2948 196.571 19.4923 196.351 19.5738C196.185 19.1098 195.599 17.6051 195.132 16.5769C195.084 17.0137 195.04 17.4494 195 17.8841C195 18.0283 194.903 19.0001 194.903 19.091C194.903 19.1819 194.928 19.2352 195.132 19.2571L195.589 19.323L195.323 19.486H194.357L194.495 19.323C194.523 19.2893 194.546 19.2511 194.561 19.2101C194.599 19.0676 194.622 18.9216 194.63 18.7744C194.665 18.4609 194.708 18.1474 194.743 17.8339C194.765 17.6365 194.862 16.6709 194.887 16.4452C194.89 16.392 194.89 16.3386 194.887 16.2854C194.887 16.1506 194.834 16.0816 194.68 16.0816H194.198L194.633 15.812L194.64 15.8308Z" fill="#4D4D4D"/>
<path fill-rule="evenodd" clip-rule="evenodd" d="M194.411 15.8308L194.182 16.3575L193.95 16.464C193.95 16.4107 194.006 16.2195 194.006 16.1976C194.006 16.0785 193.865 16.0722 193.721 16.0722H192.997C192.934 18.0973 192.934 18.2665 192.934 18.5487C192.934 18.696 192.934 18.8151 192.934 18.9907C192.934 19.2164 193.025 19.2634 193.248 19.2791L193.73 19.3261L193.392 19.4954H191.661L191.777 19.3261C191.89 19.1568 191.906 19.1317 191.906 19.0126C191.906 18.8935 191.906 18.3637 191.906 18.2446C191.906 18.0252 191.906 17.8026 191.906 17.5832C191.925 17.138 191.95 16.6897 191.95 16.2477C191.95 16.1756 191.95 16.0941 191.95 16.0722H191.323C191.009 16.0722 191.009 16.0941 190.831 16.3512L190.555 16.4578L190.831 15.8308H194.411Z" fill="#4D4D4D"/>
<path fill-rule="evenodd" clip-rule="evenodd" d="M187.683 45.4829C186.953 45.881 186.223 46.3481 185.489 46.6804C183.453 47.5551 181.253 47.9827 179.038 47.9343C176.909 47.9343 173.583 47.7995 170.191 45.3418C165.489 42.0158 163.411 36.2979 163.411 31.3105C163.411 21.0032 171.79 15.95 178.639 15.95C181.052 15.9203 183.424 16.5652 185.489 17.812C188.812 20.0064 189.674 22.8653 190.141 24.3951L174.514 30.7117L169.395 31.1098C171.056 39.555 176.774 44.4766 183.094 44.4766C186.483 44.4766 188.947 43.2791 191.207 42.1474L187.68 45.4735L187.683 45.4829ZM181.433 25.6678C182.687 25.2007 183.36 24.8026 183.36 23.8716C183.36 21.2133 180.37 18.1537 176.777 18.1537C174.119 18.1537 169.132 20.2133 169.132 27.3951C169.132 28.5268 169.263 29.7243 169.332 30.9186L181.433 25.6678Z" fill="#A0A0A0"/>
<path fill-rule="evenodd" clip-rule="evenodd" d="M161.815 46.9436H150.047C151.577 44.9498 151.843 44.7492 151.843 43.4201V32.5831C151.843 27.395 151.909 20.0157 152.11 13.1003C152.176 9.70847 152.442 5.45141 152.508 2.39185H147.335L152.326 0H161.831C159.771 1.19749 159.107 1.59561 158.84 3.92476C158.31 9.04388 158.241 17.1536 158.241 26.5987V41.9593C158.241 44.5517 158.708 44.9498 160.903 45.1505C162.035 45.2821 163.163 45.3511 164.295 45.4828L161.831 46.9436H161.815Z" fill="#A0A0A0"/>
<path fill-rule="evenodd" clip-rule="evenodd" d="M140.006 19.2163C141.536 20.4702 144.727 23.1411 144.727 28.1944C144.727 33.116 141.934 35.442 139.144 37.6364C138.279 38.5016 137.282 39.4326 137.282 40.8934C137.282 42.3542 138.279 43.1536 139.009 43.7524L141.404 45.6144C144.329 48.0752 146.987 50.3386 146.987 54.9248C146.987 61.1756 140.937 67.4922 129.498 67.4922C119.859 67.4922 115.204 62.9028 115.204 57.9843C115.204 55.5894 116.401 52.1975 120.326 49.8715C124.448 47.3448 130.044 47.0126 133.025 46.8119C132.085 45.6144 131.031 44.3511 131.031 42.2916C131.031 41.1599 131.364 40.4953 131.696 39.6991C130.962 39.7649 130.232 39.8307 129.567 39.8307C122.52 39.8307 118.53 34.5768 118.53 29.3919C118.563 27.6891 118.96 26.0132 119.694 24.4762C120.427 22.9392 121.481 21.5766 122.784 20.4796C126.577 17.3448 131.097 16.8245 134.696 16.8245H148.395L144.138 19.2163H140.006ZM135.285 48.7398C134.779 48.6822 134.268 48.6602 133.759 48.674C133.16 48.674 129.567 48.8057 126.774 49.7367C125.31 50.2696 121.056 51.8652 121.056 56.5862C121.056 61.3072 125.643 64.6991 132.759 64.6991C139.144 64.6991 142.533 61.6395 142.533 57.5173C142.533 54.1254 140.339 52.3323 135.285 48.7398ZM137.216 36.1066C138.743 34.5768 138.878 32.4483 138.878 31.2539C138.878 26.464 136.019 19.0282 130.498 19.0282C129.611 19.0402 128.736 19.2422 127.933 19.6208C127.13 19.9993 126.417 20.5455 125.843 21.2226C124.712 22.6176 124.379 24.4138 124.379 26.1411C124.379 30.5956 126.975 37.9781 132.693 37.9781C134.379 37.9383 135.991 37.2749 137.216 36.116V36.1066Z" fill="#A0A0A0"/>
<path fill-rule="evenodd" clip-rule="evenodd" d="M98.7805 47.8088C88.2068 47.8088 82.5548 39.5642 82.5548 32.1191C82.5548 23.4075 89.6708 15.9592 99.7774 15.9592C109.552 15.9592 115.671 23.605 115.671 31.652C115.671 39.489 109.618 47.8088 98.7805 47.8088ZM107.091 42.4232C108.686 40.2946 109.088 37.6363 109.088 35.0439C109.088 29.1912 106.291 18.0188 98.047 18.0188C95.8468 18.0391 93.7256 18.8413 92.0626 20.2821C89.4702 22.6081 89.0062 25.5329 89.0062 28.395C89.0062 34.978 92.2633 45.815 100.307 45.815C101.623 45.8133 102.921 45.5061 104.098 44.9175C105.275 44.3289 106.3 43.4751 107.091 42.4232Z" fill="#A0A0A0"/>
<path fill-rule="evenodd" clip-rule="evenodd" d="M63.4044 47.8088C52.8308 47.8088 47.1787 39.5642 47.1787 32.1191C47.1787 23.4075 54.2947 15.9592 64.4013 15.9592C74.1756 15.9592 80.2947 23.605 80.2947 31.652C80.2947 39.489 74.2445 47.8088 63.4044 47.8088ZM71.7148 42.4232C73.3135 40.2946 73.7116 37.6363 73.7116 35.0439C73.7116 29.1912 70.9185 18.0188 62.674 18.0188C60.4729 18.0392 58.3507 18.8414 56.6865 20.2821C54.0941 22.6081 53.6301 25.5329 53.6301 28.395C53.6301 34.978 56.8872 45.815 64.9342 45.815C66.2499 45.8133 67.5472 45.5061 68.7238 44.9175C69.9005 44.3289 70.9244 43.475 71.7148 42.4232Z" fill="#A0A0A0"/>
<path fill-rule="evenodd" clip-rule="evenodd" d="M42.9467 45.4891L34.0376 47.5393C30.4201 48.1004 27.1787 48.5989 23.7523 48.5989C6.54545 48.5989 0 35.9437 0 26.0283C0 13.9343 9.2884 2.71484 25.185 2.71484C28.4088 2.72209 31.6172 3.16174 34.7241 4.02205C39.3981 5.33239 41.5799 6.95308 42.953 7.89039L37.7774 12.8152L35.5831 13.3136L37.1505 10.8058C35.0314 8.74933 31.1661 4.94682 23.8119 4.94682C13.9592 4.94682 6.54232 12.4264 6.54232 23.3387C6.54232 35.0565 15.0219 46.091 28.6113 46.091C32.6019 46.091 34.6583 45.2791 36.5266 44.5236V34.4923L27.1223 34.9907L32.1066 32.3105H45.3229L43.7053 33.8779C43.537 33.991 43.3942 34.1381 43.2862 34.3098C43.1782 34.4815 43.1074 34.674 43.0784 34.8747C43.0188 35.4358 42.9561 37.2446 42.9561 37.8685V45.4735L42.9467 45.4891Z" fill="#A0A0A0"/>
</g>
<defs>
<clipPath id="clip0_18_648">
<rect width="200" height="67.4922" fill="white"/>
</clipPath>
</defs>
</svg>
