<svg width="200" height="44" viewBox="0 0 200 44" fill="none" xmlns="http://www.w3.org/2000/svg">
<path d="M0 0.391602H20.3174C20.316 7.16406 20.3174 13.9365 20.316 20.709C13.5449 20.709 6.77246 20.709 0 20.709V0.391602Z" fill="#A0A0A0"/>
<path d="M22.3916 0.391602H42.709C42.709 7.16406 42.7103 13.9365 42.7076 20.709C35.9365 20.7076 29.1641 20.709 22.3929 20.709C22.3907 13.9365 22.3916 7.16406 22.3916 0.391602Z" fill="#A0A0A0"/>
<path d="M195.636 19.7396C195.642 21.7907 195.637 23.8423 195.638 25.8947C195.661 27.0307 195.577 28.173 195.71 29.3054C195.79 29.973 196.033 30.7125 196.659 31.0579C197.707 31.645 199.037 31.3885 200 30.7441V34.3476C198.745 34.893 197.341 35.0592 195.983 34.9628C194.695 34.8676 193.36 34.3992 192.519 33.3739C191.548 32.2156 191.297 30.6476 191.278 29.181C191.267 26.0325 191.279 22.8845 191.273 19.7352C189.129 19.7338 186.985 19.7325 184.842 19.7365C184.84 24.6774 184.841 29.6183 184.841 34.5588H180.447C180.447 29.6192 180.44 24.681 180.449 19.741C179.43 19.7214 178.41 19.7458 177.391 19.7249C177.395 18.5525 177.4 17.3783 177.389 16.2045C178.403 16.1814 179.418 16.1912 180.435 16.1983C180.509 14.6387 180.271 13.0343 180.737 11.5152C181.132 10.1436 182.008 8.90626 183.216 8.13248C185.088 6.91337 187.509 6.80003 189.62 7.38092C189.638 8.63514 189.622 9.89115 189.628 11.1467C188.625 10.7049 187.445 10.4169 186.389 10.8503C185.552 11.1823 185.054 12.0414 184.924 12.9005C184.767 13.9903 184.869 15.0947 184.842 16.1903C186.985 16.1952 189.128 16.1916 191.271 16.1925C191.287 14.8014 191.254 13.4089 191.289 12.0178C192.746 11.6027 194.187 11.1378 195.637 10.7014C195.649 12.5343 195.62 14.368 195.653 16.2023C197.101 16.1814 198.551 16.1974 200 16.1925V19.7605C198.546 19.7005 197.09 19.7445 195.636 19.7396Z" fill="#777777"/>
<path d="M89.1362 8.3895C90.022 8.25527 90.9811 8.55794 91.5682 9.25083C92.2562 10.0099 92.3833 11.2179 91.8731 12.1051C91.3095 13.1055 90.0477 13.5704 88.9482 13.3304C87.8073 13.1255 86.8566 12.0651 86.9077 10.8824C86.8748 9.63794 87.9157 8.52861 89.1362 8.3895Z" fill="#777777"/>
<path d="M55.4606 8.93327C57.5912 8.93327 59.7206 8.93327 61.8512 8.93327C63.8401 13.9839 65.8441 19.0297 67.8353 24.0804C68.3442 25.3435 68.8202 26.6209 69.353 27.8742C71.9117 21.5631 74.5073 15.2675 77.0468 8.94793C79.0957 8.91504 81.1455 8.94083 83.1957 8.93594C83.1909 17.4764 83.1935 26.0173 83.1944 34.5578C81.7153 34.5542 80.2375 34.5698 78.7602 34.5493C78.7762 28.2466 78.7588 21.944 78.7673 15.6404C78.7695 15.3573 78.7602 15.0742 78.7406 14.7911C78.654 14.9231 78.5771 15.0595 78.51 15.2013C75.9704 21.6529 73.3824 28.0862 70.8579 34.5436C69.8059 34.5813 68.753 34.5458 67.6997 34.5631C65.0797 28.1115 62.493 21.6453 59.8864 15.1893C59.8179 15.0551 59.745 14.9244 59.6655 14.7986C59.6117 17.56 59.657 20.324 59.6424 23.0853C59.6437 26.9098 59.6401 30.7338 59.6437 34.5582C58.249 34.5618 56.8543 34.5582 55.4606 34.5595C55.4597 26.0169 55.4583 17.4751 55.4606 8.93327Z" fill="#777777"/>
<path d="M101.229 16.1757C103.35 15.5717 105.637 15.5961 107.756 16.1952C108.193 16.3174 108.617 16.4868 109.01 16.7174C108.985 18.117 109.01 19.5179 108.996 20.9188C107.579 19.8366 105.782 19.1508 103.981 19.3775C102.551 19.5068 101.187 20.2486 100.331 21.4041C99.2318 22.8366 98.978 24.7392 99.1674 26.4912C99.3087 27.8628 99.8762 29.233 100.943 30.1424C102.051 31.1273 103.604 31.4761 105.054 31.3664C106.486 31.2015 107.838 30.5953 108.997 29.7481C109.009 31.0744 108.99 32.401 109.006 33.7273C107.21 34.7962 105.057 35.0722 103 34.9708C100.897 34.8597 98.7989 34.0628 97.2758 32.5842C95.6211 30.9895 94.7229 28.7148 94.6167 26.4366C94.5091 24.0681 94.9913 21.597 96.3545 19.6188C97.4962 17.9317 99.2825 16.737 101.229 16.1757Z" fill="#777777"/>
<path d="M141.128 20.4805C140.365 18.7845 138.989 17.3677 137.29 16.6014C135.333 15.7108 133.108 15.5912 131 15.8597C128.785 16.1392 126.629 17.181 125.223 18.9468C123.939 20.5232 123.314 22.549 123.195 24.5588C123.018 26.9272 123.413 29.441 124.804 31.4179C125.989 33.1237 127.86 34.2966 129.881 34.7286C131.57 35.0837 133.336 35.085 135.025 34.7335C137.001 34.3273 138.846 33.2339 140.07 31.6206C141.266 30.1015 141.866 28.1855 142.001 26.2735C142.139 24.3143 141.942 22.2863 141.128 20.4805ZM136.884 28.9099C136.464 29.8544 135.695 30.6526 134.725 31.0308C133.591 31.4664 132.315 31.4921 131.144 31.1881C129.952 30.8743 128.94 30.013 128.39 28.9161C127.682 27.5032 127.576 25.869 127.722 24.3192C127.855 22.9099 128.346 21.4601 129.419 20.4877C130.198 19.7605 131.259 19.4054 132.31 19.3468C133.63 19.2601 135.036 19.6334 135.986 20.5939C137.001 21.5921 137.394 23.0406 137.503 24.4219C137.581 25.9339 137.519 27.509 136.884 28.9099Z" fill="#777777"/>
<path d="M149.228 15.8965C151.259 15.5392 153.387 15.8014 155.31 16.5298C155.312 17.8769 155.31 19.2227 155.311 20.569C153.967 19.6454 152.326 19.1485 150.696 19.2058C149.875 19.2374 148.971 19.5854 148.597 20.3663C148.299 21.1387 148.506 22.1516 149.234 22.6138C150.48 23.4472 151.966 23.801 153.257 24.5481C154.274 25.1192 155.26 25.8659 155.775 26.9423C156.742 28.9583 156.332 31.6219 154.631 33.1254C153.007 34.6432 150.667 35.0632 148.516 34.9828C146.989 34.8841 145.454 34.5823 144.049 33.9579C144.055 32.541 144.04 31.1259 144.056 29.7103C145.237 30.5681 146.6 31.1819 148.043 31.4308C149.047 31.5943 150.139 31.6014 151.075 31.1525C151.971 30.7072 152.132 29.4343 151.6 28.6561C151.102 28.0556 150.371 27.725 149.682 27.4005C148.387 26.8183 147.027 26.3316 145.889 25.4592C145.09 24.8356 144.485 23.957 144.248 22.9663C143.896 21.5058 144.006 19.8596 144.855 18.5832C145.826 17.0947 147.511 16.2027 149.228 15.8965Z" fill="#777777"/>
<path d="M176.319 21.0112C175.643 19.1881 174.29 17.6117 172.545 16.7392C170.543 15.729 168.215 15.581 166.023 15.8534C164.255 16.0805 162.517 16.7517 161.167 17.9365C159.519 19.3557 158.553 21.4423 158.269 23.5766C157.998 25.7108 158.089 27.9583 158.959 29.9561C159.794 31.9157 161.442 33.5072 163.423 34.2868C165.379 35.0566 167.554 35.1433 169.612 34.8104C171.717 34.4628 173.711 33.3557 175.015 31.6521C176.407 29.8926 177.006 27.6157 177.003 25.397C177.033 23.9117 176.847 22.4059 176.319 21.0112ZM172.355 27.237C172.187 28.2032 171.853 29.1677 171.219 29.9326C170.581 30.7015 169.632 31.1699 168.652 31.3139C167.6 31.4712 166.492 31.3957 165.508 30.9721C164.447 30.5232 163.624 29.6041 163.191 28.5477C162.67 27.2886 162.566 25.8934 162.67 24.5463C162.77 23.2419 163.14 21.9032 164.001 20.8894C164.787 19.9423 165.993 19.4192 167.208 19.3508C168.449 19.2641 169.774 19.5508 170.728 20.389C171.608 21.1188 172.095 22.2121 172.318 23.3126C172.57 24.6037 172.568 25.9397 172.355 27.237Z" fill="#777777"/>
<path d="M118.835 16.4747C120.048 15.7463 121.589 15.6854 122.913 16.1307C122.907 17.5961 122.913 19.0618 122.91 20.5272C122.043 19.9659 120.962 19.7254 119.939 19.8294C118.692 19.9707 117.704 20.929 117.191 22.0272C116.635 23.1903 116.53 24.5054 116.566 25.777C116.566 28.7045 116.567 31.6317 116.566 34.5592C115.121 34.5592 113.677 34.5592 112.234 34.5592C112.23 28.441 112.238 22.3214 112.23 16.2027C113.676 16.1845 115.122 16.1916 116.568 16.1992C116.562 17.2498 116.568 18.3005 116.565 19.3525C117.034 18.209 117.733 17.0983 118.835 16.4747Z" fill="#777777"/>
<path d="M87.3068 16.1991C88.7637 16.1929 90.2219 16.1782 91.6788 16.2062C91.6619 22.3236 91.6775 28.4418 91.6717 34.5587C90.2171 34.5587 88.7628 34.5587 87.3095 34.5587C87.3059 28.4392 87.3108 22.3196 87.3068 16.1991Z" fill="#777777"/>
<path d="M0 22.7822C6.77246 22.7844 13.5449 22.7809 20.3174 22.7845C20.3187 29.5569 20.3174 36.328 20.3174 43.1005H0V22.7822Z" fill="#A0A0A0"/>
<path d="M22.3929 22.7845C29.1641 22.7822 35.9365 22.7831 42.709 22.7831C42.709 29.5556 42.709 36.3281 42.709 43.1005H22.3916C22.3929 36.3285 22.3907 29.556 22.3929 22.7845Z" fill="#A0A0A0"/>
</svg>
