<svg width="200" height="30" viewBox="0 0 200 30" fill="none" xmlns="http://www.w3.org/2000/svg">
<g clip-path="url(#clip0_18_626)">
<path fill-rule="evenodd" clip-rule="evenodd" d="M109.671 13.7005C108.661 13.0723 107.608 12.5151 106.52 12.0328C106.52 12.0328 102.796 10.3055 102.056 9.48423C102.056 9.48423 100.608 8.11746 101.458 6.52812C101.458 6.52812 101.812 5.4905 103.339 5.4905C103.339 5.4905 105.335 5.60021 105.335 7.23971V9.55633H112.492V6.14567C112.492 6.14567 113.044 0.562596 104.063 0.314947C104.063 0.314947 97 -0.149002 94.9718 3.65664C94.9718 3.65664 94.1755 4.50304 94.1755 7.45915V9.59395C94.1755 9.59395 94.0972 12.0579 95.3542 13.6441C95.3542 13.6441 96.0658 14.6848 97.8182 15.8385C97.8182 15.8385 101.376 17.7538 103.511 18.851C103.511 18.851 105.668 20.083 105.392 22.0391C105.392 22.0391 105.219 24.0485 103.138 23.967C103.138 23.967 101.232 23.8823 101.232 21.9106V19.5971H93.5956V22.9576C93.5956 22.9576 93.3793 29.3871 103.182 29.3871C103.182 29.3871 112.542 29.5783 112.981 22.7883V20.0548C112.981 20.0548 113.31 15.8917 109.671 13.7037V13.7005Z" fill="#A0A0A0"/>
<path fill-rule="evenodd" clip-rule="evenodd" d="M73.0314 1.11743L70.6364 16.1331H70.0753L67.7869 1.24909H55.8307L55.232 28.4435H62.3104L62.395 7.95442H62.953L66.7022 28.4403H74.1505L77.8558 7.96383H78.348L78.5204 28.4435H85.6364L84.8684 1.11743H73.0314Z" fill="#A0A0A0"/>
<path fill-rule="evenodd" clip-rule="evenodd" d="M30.8966 1.23047L26.1881 28.4154H33.8088L36.5988 7.33705H37.2257L40.0126 28.4154H47.6301L42.9248 1.23047H30.8966Z" fill="#A0A0A0"/>
<path fill-rule="evenodd" clip-rule="evenodd" d="M190.787 13.3276V17.337H192.74V21.6411C192.74 23.7414 190.94 23.7821 190.94 23.7821C188.746 23.7821 188.837 21.7821 188.837 21.7821V6.90751C188.837 5.3746 190.777 5.29309 190.777 5.29309C192.639 5.29309 192.658 7.12068 192.658 7.12068V9.384H199.834C200.066 4.96707 199.188 3.89811 199.188 3.89811C197.408 -0.0987601 190.674 0.117542 190.674 0.117542C180.329 0.117542 181.476 8.05799 181.476 8.05799V22.453C181.699 29.8981 191.893 29.1426 192.066 29.1332C196.602 28.6317 197.969 27.1928 197.969 27.1928C198.722 26.637 199.278 25.8549 199.555 24.9608C199.915 24.2053 200.006 21.7978 200.006 21.7978V13.3338L190.787 13.3276Z" fill="#A0A0A0"/>
<path fill-rule="evenodd" clip-rule="evenodd" d="M167.006 17.7507H166.693L159.411 1.12374H150.702V28.4498H157.79L157.367 11.8228H157.68L165.226 28.4498H173.671V1.12061H166.495L167.006 17.7507Z" fill="#A0A0A0"/>
<path fill-rule="evenodd" clip-rule="evenodd" d="M133.395 21.6409C133.395 21.6409 133.498 23.8854 131.42 23.8854C131.42 23.8854 129.226 24.0014 129.226 21.6911L129.204 1.13623H121.433V21.5124C121.433 21.5124 120.636 29.2303 131.527 29.2303C131.527 29.2303 140.994 29.3431 140.994 21.8666V1.13937H133.395V21.6409Z" fill="#A0A0A0"/>
<path fill-rule="evenodd" clip-rule="evenodd" d="M16.0721 13.7006C15.0675 13.072 14.02 12.5147 12.9373 12.0329C12.9373 12.0329 9.2163 10.3088 8.47649 9.48433C8.47649 9.48433 7.02508 8.11442 7.87461 6.53135C7.87461 6.53135 8.23198 5.4906 9.75549 5.4906C9.75549 5.4906 11.7555 5.60032 11.7555 7.23982V9.55644H18.9154V6.14578C18.9154 6.14578 19.4357 0.559566 10.464 0.324456C9.90843 0.295494 9.35177 0.295494 8.79624 0.324456C8.79624 0.324456 3.35737 0.615996 1.4138 3.60032C1.40015 3.61946 1.38759 3.63934 1.37618 3.65988C1.37618 3.65988 0.579944 4.50627 0.579944 7.46238V9.59718C0.579944 9.59718 0.498437 12.0611 1.75863 13.6473C1.75863 13.6473 2.47022 14.6881 4.22258 15.8417C4.22258 15.8417 7.77744 17.7571 9.91537 18.8542C9.91537 18.8542 12.0721 20.0831 11.7962 22.0423C11.7962 22.0423 11.6207 24.0517 9.54233 23.9702C9.54233 23.9702 7.63637 23.8856 7.63637 21.9138V19.5972H4.32058e-06V22.9608C4.32058e-06 22.9608 -0.213161 29.3903 9.58621 29.3903C9.58621 29.3903 18.9467 29.5815 19.3856 22.7915V20.058C19.3856 20.058 19.6991 15.895 16.0721 13.7069V13.7006Z" fill="#A0A0A0"/>
</g>
<defs>
<clipPath id="clip0_18_626">
<rect width="200" height="29.2821" fill="white" transform="translate(0 0.10498)"/>
</clipPath>
</defs>
</svg>
