<svg width="200" height="24" viewBox="0 0 200 24" fill="none" xmlns="http://www.w3.org/2000/svg">
<path d="M176.284 9.14194H171.335V23.0581H176.284V14.3117H194.303V23.0581H199.257V9.20439H176.285V9.14194H176.284ZM93.9095 5.51476H111.566C114.247 4.75877 116.197 2.77643 116.75 0.546978H88.9617V14.3422H111.929V17.9375H94.146C91.5219 18.934 89.5967 20.6426 89.052 22.8402L88.963 23.0568H116.879V9.3625H93.9122V5.51476H93.9095ZM137.558 17.7861V0.548311H132.59V23.0581H155.277V22.8482C157.749 21.8198 159.532 20.0288 160.053 17.9256L137.558 17.7861ZM175.642 5.51476H194.805C197.485 4.5236 199.455 2.67546 200 0.434044H170.452C170.987 2.67546 172.973 4.5236 175.642 5.51476ZM49.8093 5.51476H68.967C71.6469 4.5236 73.6039 2.67546 74.162 0.434044H44.6144C45.1538 2.67546 47.1295 4.5236 49.8093 5.51476ZM49.8093 23.0143H68.967C71.6469 22.0297 73.6039 20.1564 74.162 17.9269H44.6144C45.1538 20.155 47.1295 22.0297 49.8093 23.0143ZM0 0.60544C0.579287 2.81497 2.5284 4.67107 5.18435 5.65427H13.2492L13.6624 5.8323V23.0581H18.6926V5.8323L19.1444 5.65427H27.2039C29.8465 4.66975 31.8089 2.81497 32.3749 0.60544V0.548311H0V0.60544ZM49.8093 14.3436H68.967C71.6469 13.3723 73.6039 11.4857 74.162 9.27481H44.6144C45.1538 11.4857 47.1295 13.3723 49.8093 14.3436Z" fill="#A0A0A0"/>
</svg>
