<svg width="200" height="46" viewBox="0 0 200 46" fill="none" xmlns="http://www.w3.org/2000/svg">
<path d="M99.7738 11.4273C91.964 11.4273 86.3329 16.5206 86.3329 24.1606C86.3329 31.8006 92.6711 36.894 100.481 36.894C105.2 36.894 109.36 35.0264 111.934 31.8784L106.523 28.7518C105.094 30.3153 102.922 31.2278 100.481 31.2278C97.0929 31.2278 94.2138 29.4593 93.1453 26.6295H112.967C113.123 25.8371 113.215 25.0166 113.215 24.1535C113.215 16.5206 107.584 11.4273 99.7738 11.4273ZM93.0813 21.6846C93.9658 18.862 96.3849 17.0864 99.7662 17.0864C103.155 17.0864 105.574 18.862 106.451 21.6846H93.0813ZM175.948 11.4273C168.138 11.4273 162.507 16.5206 162.507 24.1606C162.507 31.8006 168.845 36.894 176.656 36.894C181.374 36.894 185.534 35.0264 188.108 31.8784L182.697 28.7518C181.268 30.3153 179.096 31.2278 176.656 31.2278C173.267 31.2278 170.388 29.4593 169.32 26.6295H189.141C189.297 25.8371 189.389 25.0166 189.389 24.1535C189.389 16.5206 183.758 11.4273 175.948 11.4273ZM169.263 21.6846C170.147 18.862 172.566 17.0864 175.948 17.0864C179.336 17.0864 181.756 18.862 182.632 21.6846H169.263ZM141.652 24.1606C141.652 28.4051 144.425 31.2349 148.727 31.2349C151.641 31.2349 153.827 29.9122 154.952 27.7544L160.385 30.8882C158.135 34.6375 153.919 36.894 148.727 36.894C140.91 36.894 135.286 31.8006 135.286 24.1606C135.286 16.5206 140.917 11.4273 148.727 11.4273C153.919 11.4273 158.128 13.6838 160.385 17.4331L154.952 20.5669C153.827 18.4091 151.641 17.0864 148.727 17.0864C144.432 17.0869 141.652 19.9162 141.652 24.1606ZM200 3.64598V36.1869H193.633V3.64598H200ZM26.1391 0.108643L52.2782 45.3833H0L26.1391 0.108643ZM91.4898 3.64598L71.8876 37.602L52.2853 3.64598H59.6356L71.888 24.8682L84.1404 3.64598H91.4898ZM133.164 12.1349V18.9895C132.456 18.7842 131.706 18.6429 130.9 18.6429C126.79 18.6429 123.826 21.4726 123.826 25.7171V36.1869H117.459V12.1349H123.826V18.6429C123.826 15.0495 128.007 12.1349 133.164 12.1349Z" fill="#A4A4A4"/>
</svg>
