<svg width="28" height="32" viewBox="0 0 28 32" fill="none" xmlns="http://www.w3.org/2000/svg">
<path d="M22.7332 17.0006C22.7781 21.8432 26.9814 23.4547 27.028 23.4753C26.9924 23.5889 26.3564 25.7718 24.8135 28.0266C23.4797 29.976 22.0955 31.9182 19.9149 31.9584C17.7722 31.9979 17.0832 30.6878 14.6336 30.6878C12.1846 30.6878 11.4191 31.9182 9.39085 31.9979C7.28601 32.0775 5.6832 29.8899 4.33837 27.9477C1.59037 23.9748 -0.509675 16.7212 2.31015 11.825C3.71098 9.39347 6.21436 7.85374 8.93156 7.81425C10.9985 7.77483 12.9494 9.2048 14.2129 9.2048C15.4756 9.2048 17.8464 7.48514 20.3387 7.73769C21.382 7.78112 24.3108 8.15915 26.1914 10.9119C26.0399 11.0058 22.6968 12.952 22.7332 17.0006ZM18.7063 5.10928C19.8237 3.75662 20.5759 1.8736 20.3707 0C18.7599 0.0647379 16.8122 1.07336 15.6568 2.42528C14.6214 3.62246 13.7146 5.53862 13.9592 7.37514C15.7546 7.51405 17.5887 6.46279 18.7063 5.10928Z" fill="#E0E0E0"/>
</svg>
