<svg width="33" height="32" viewBox="0 0 33 32" fill="none" xmlns="http://www.w3.org/2000/svg">
<path fill-rule="evenodd" clip-rule="evenodd" d="M2.5468 8.82574C3.19998 7.39131 4.12218 6.13737 5.20595 5.00375C7.65367 2.43915 10.6205 0.796734 14.1236 0.23637C19.0302 -0.54831 23.4263 0.609373 27.2208 3.87873C27.4606 4.08586 27.5199 4.20618 27.2595 4.46144C25.9188 5.77382 24.6004 7.10769 23.2734 8.43383C23.1376 8.56962 23.0456 8.73636 22.8041 8.51462C19.4608 5.45153 14.0042 5.48677 10.4529 8.78964C9.25576 9.90761 8.34519 11.2972 7.79805 12.8411C7.71211 12.787 7.62616 12.7388 7.54967 12.6787L2.5468 8.82574Z" fill="#D7282A"/>
<path fill-rule="evenodd" clip-rule="evenodd" d="M7.75852 19.0962C8.23809 20.3132 8.83369 21.464 9.71807 22.4412C11.9687 24.9267 14.7628 25.997 18.1003 25.6521C19.6525 25.4905 21.068 24.9645 22.3898 24.1566C22.5162 24.2701 22.6374 24.3913 22.7706 24.4961C24.3176 25.7039 25.866 26.9103 27.4159 28.1153C25.7377 29.7098 23.6722 30.8385 21.4238 31.3898C16.0763 32.7452 11.1473 31.8857 6.77015 28.4333C4.97082 27.0223 3.52116 25.2153 2.53391 23.1528L7.75852 19.0962Z" fill="#45AC43"/>
<path fill-rule="evenodd" clip-rule="evenodd" d="M27.4159 28.1152C25.8689 26.9085 24.3205 25.7022 22.7706 24.4961C22.6374 24.3912 22.5127 24.27 22.3898 24.1566C23.4384 23.3564 24.3133 22.4102 24.8874 21.2078C25.1065 20.7264 25.2878 20.2287 25.4297 19.7192C25.5346 19.3694 25.5019 19.2328 25.0696 19.2371C22.4913 19.2586 19.9129 19.2474 17.3345 19.2474C16.7888 19.2474 16.7888 19.2474 16.7888 18.6827C16.7888 16.9355 16.7965 15.1891 16.7811 13.4401C16.7811 13.1032 16.8369 12.9742 17.2159 12.9751C21.9716 12.9889 26.7272 12.9889 31.4828 12.9751C31.7407 12.9751 31.9005 12.994 31.9452 13.306C32.5365 17.464 32.0621 21.4364 29.8825 25.1063C29.2182 26.2356 28.418 27.2609 27.4159 28.1152Z" fill="#5D7FBE"/>
<path fill-rule="evenodd" clip-rule="evenodd" d="M7.75851 19.0961L2.5339 23.1528C1.68218 21.5722 1.19315 19.8731 0.96368 18.1035C0.564894 15.0404 1.00322 12.089 2.30357 9.27604C2.3749 9.12134 2.46514 8.97609 2.54679 8.82568L7.54967 12.6786C7.62788 12.7388 7.71554 12.7869 7.79805 12.841C7.09673 14.9218 7.13455 17.0077 7.75851 19.0961Z" fill="#F4C300"/>
</svg>
